Coordinates
version=1
nRows=4
nColumns=40
inDegrees=yes

Units are S.I. units (second, meters, Newtons, ...)
If the header above contains a line with 'inDegrees', this indicates whether rotational values are in degrees (yes) or radians (no).

endheader
time	pelvis_tilt	pelvis_list	pelvis_rotation	pelvis_tx	pelvis_ty	pelvis_tz	hip_flexion_r	hip_adduction_r	hip_rotation_r	knee_angle_r	knee_angle_r_beta	ankle_angle_r	subtalar_angle_r	mtp_angle_r	hip_flexion_l	hip_adduction_l	hip_rotation_l	knee_angle_l	knee_angle_l_beta	ankle_angle_l	subtalar_angle_l	mtp_angle_l	lumbar_extension	lumbar_bending	lumbar_rotation	arm_flex_r	arm_add_r	arm_rot_r	elbow_flex_r	pro_sup_r	wrist_flex_r	wrist_dev_r	arm_flex_l	arm_add_l	arm_rot_l	elbow_flex_l	pro_sup_l	wrist_flex_l	wrist_dev_l
      6.08000000000000007105	     30.08163630405093513787	      4.69760299443305129330	   -175.94513789979905027394	      0.31783499449559854400	      0.84042991819294432521	     -0.61761754543340818824	     51.65519074156312484547	     -5.71119927473232547044	    -12.42301961223287420921	     21.47763980439442477177	      0.37485553014407357875	      1.14779384859222854942	      0.00000000000000000000	      0.00000000000000000000	     54.16838671125812965101	     -6.45999337086704006339	      1.73791773770882440608	     22.48528187137001310703	      0.39244220189439882329	     -1.65363864327955290001	      0.00000000000000000000	      0.00000000000000000000	      4.38754466832432932222	      4.91638784816685259216	      0.53365123332398878286	     27.64998202967704798994	    -10.15887161768768898185	     66.08347169172539281590	      1.40658137416303574696	     84.69697406956854024429	      0.00000000000000000000	      0.00000000000000000000	     19.09795938639813783766	     -7.65866175716518160499	     84.27280474636587825898	      0.69753932547660013608	      3.15207228426015273470	      0.00000000000000000000	      0.00000000000000000000
      6.08499999999999996447	     29.89756527448144751702	      4.79510176928388887063	   -176.04194834439655892311	      0.31585074699428333789	      0.84130617749110570003	     -0.61758307287171199107	     51.09480574324930302055	     -5.48738847745705538017	    -12.52814617475946512570	     21.04481063881001645655	      0.36730123610596593364	      1.09575048694028120977	      0.00000000000000000000	      0.00000000000000000000	     53.79261388429063828198	     -6.64350249067907139278	      1.64336857002557645835	     22.41819293326967255098	      0.39127127903288122512	     -1.52756067253033389619	      0.00000000000000000000	      0.00000000000000000000	      4.81130878298337449905	      5.04863130898877088271	      0.45688157852485988819	     27.33420244156933520685	    -10.11270924453753039529	     65.08231463625460833100	      1.41870193913457698365	     84.97300070582167563771	      0.00000000000000000000	      0.00000000000000000000	     18.66090457290581738903	     -7.74267436436008971157	     84.23291733760568433809	      0.70433735937682506734	      3.21775667613559424041	      0.00000000000000000000	      0.00000000000000000000
      6.08999999999999985789	     29.62035672621269455362	      4.87276437124664862921	   -176.05612671483208941936	      0.31379437331379461673	      0.84231384241544671188	     -0.61737245603358392732	     50.42988494738085591962	     -5.34680548307142622377	    -12.70392283008184541870	     20.62876421212297017860	      0.36003985611911981657	      1.10814992311219295829	      0.00000000000000000000	      0.00000000000000000000	     53.29712208981802490371	     -6.74397720134750144894	      1.65063635108764716897	     22.32207689983616560880	      0.38959373778550959733	     -1.37072648810094377403	      0.00000000000000000000	      0.00000000000000000000	      5.12825807933500410485	      5.14538905716025052328	      0.28900589659290892852	     27.03110206393990111451	    -10.05410115693461214903	     64.32272015038184065361	      1.43379051376183497268	     85.21947308154251743417	      0.00000000000000000000	      0.00000000000000000000	     18.24793837237706739529	     -7.81785101067446941414	     84.14822911671184613169	      0.71572241560793015136	      3.24841852396901664690	      0.00000000000000000000	      0.00000000000000000000
      6.09499999999999975131	     29.54264936340009839455	      5.35110668219071694551	   -175.68530488107268183740	      0.31200798621059699922	      0.84294311934331966896	     -0.61664942308641879087	     49.93475506634189997612	     -5.25095491492728605465	    -13.52364654717477954193	     20.24605530368769024108	      0.35336032559021063326	      1.09785157862529758610	      0.00000000000000000000	      0.00000000000000000000	     53.18221952156862641914	     -6.76398824325578829075	      2.35420105509619936868	     22.24319385849377539444	      0.38821696899009805470	     -1.26054002201345483059	      0.00000000000000000000	      0.00000000000000000000	      5.73876496133200220129	      5.64284373565465458000	     -0.41510616940243605377	     26.73601750777892149813	    -10.08324574881685187222	     64.12312953397244541520	      1.48333278760262898821	     85.16175528928296500908	      0.00000000000000000000	      0.00000000000000000000	     17.78234867485974390888	     -7.77370386828326154216	     83.39086013650108952788	      0.72690867040359119500	      3.07210555112324179561	      0.00000000000000000000	      0.00000000000000000000
